<svg xmlns="http://www.w3.org/2000/svg" xmlns:xlink="http://www.w3.org/1999/xlink" viewBox="225 600 1050 255" preserveAspectRatio="xMidYMid meet" version="1.0"><defs><g/><clipPath id="beb602281a"><path d="M 974 779 L 1095 779 L 1095 834 L 974 834 Z M 974 779 " clip-rule="nonzero"/></clipPath><clipPath id="1908c63b5f"><path d="M 851.679688 696.386719 L 1044.992188 579.792969 L 1154.609375 761.542969 L 961.300781 878.136719 Z M 851.679688 696.386719 " clip-rule="nonzero"/></clipPath><clipPath id="8f059cc094"><path d="M 851.679688 696.386719 L 1044.992188 579.792969 L 1154.609375 761.542969 L 961.300781 878.136719 Z M 851.679688 696.386719 " clip-rule="nonzero"/></clipPath><clipPath id="baf2f4b9f7"><path d="M 966.316406 786.273438 L 1062.816406 728.074219 L 1101.914062 792.898438 L 1005.414062 851.097656 Z M 966.316406 786.273438 " clip-rule="nonzero"/></clipPath><clipPath id="32436cf3f7"><path d="M 927 730 L 1005 730 L 1005 842 L 927 842 Z M 927 730 " clip-rule="nonzero"/></clipPath><clipPath id="aa023b1d40"><path d="M 851.679688 696.386719 L 1044.992188 579.792969 L 1154.609375 761.542969 L 961.300781 878.136719 Z M 851.679688 696.386719 " clip-rule="nonzero"/></clipPath><clipPath id="632997d96c"><path d="M 851.679688 696.386719 L 1044.992188 579.792969 L 1154.609375 761.542969 L 961.300781 878.136719 Z M 851.679688 696.386719 " clip-rule="nonzero"/></clipPath><clipPath id="9012a549ec"><path d="M 896 668 L 972 668 L 972 783 L 896 783 Z M 896 668 " clip-rule="nonzero"/></clipPath><clipPath id="c47050fca6"><path d="M 851.679688 696.386719 L 1044.992188 579.792969 L 1154.609375 761.542969 L 961.300781 878.136719 Z M 851.679688 696.386719 " clip-rule="nonzero"/></clipPath><clipPath id="83b71a03fb"><path d="M 851.679688 696.386719 L 1044.992188 579.792969 L 1154.609375 761.542969 L 961.300781 878.136719 Z M 851.679688 696.386719 " clip-rule="nonzero"/></clipPath><clipPath id="41c1050c93"><path d="M 912 624 L 1032 624 L 1032 679 L 912 679 Z M 912 624 " clip-rule="nonzero"/></clipPath><clipPath id="2313ecc4ad"><path d="M 851.679688 696.386719 L 1044.992188 579.792969 L 1154.609375 761.542969 L 961.300781 878.136719 Z M 851.679688 696.386719 " clip-rule="nonzero"/></clipPath><clipPath id="83b83d51ee"><path d="M 851.679688 696.386719 L 1044.992188 579.792969 L 1154.609375 761.542969 L 961.300781 878.136719 Z M 851.679688 696.386719 " clip-rule="nonzero"/></clipPath><clipPath id="6e8ae4fe97"><path d="M 1001 615 L 1079 615 L 1079 728 L 1001 728 Z M 1001 615 " clip-rule="nonzero"/></clipPath><clipPath id="1dfd4c4754"><path d="M 851.679688 696.386719 L 1044.992188 579.792969 L 1154.609375 761.542969 L 961.300781 878.136719 Z M 851.679688 696.386719 " clip-rule="nonzero"/></clipPath><clipPath id="fddbf4a17f"><path d="M 851.679688 696.386719 L 1044.992188 579.792969 L 1154.609375 761.542969 L 961.300781 878.136719 Z M 851.679688 696.386719 " clip-rule="nonzero"/></clipPath><clipPath id="db4125dcff"><path d="M 1034 675 L 1110 675 L 1110 790 L 1034 790 Z M 1034 675 " clip-rule="nonzero"/></clipPath><clipPath id="004de6042b"><path d="M 851.679688 696.386719 L 1044.992188 579.792969 L 1154.609375 761.542969 L 961.300781 878.136719 Z M 851.679688 696.386719 " clip-rule="nonzero"/></clipPath><clipPath id="200339bb46"><path d="M 851.679688 696.386719 L 1044.992188 579.792969 L 1154.609375 761.542969 L 961.300781 878.136719 Z M 851.679688 696.386719 " clip-rule="nonzero"/></clipPath><clipPath id="5ccc099975"><path d="M 1003.472656 729.015625 L 1099.910156 670.851562 L 1139.027344 735.710938 L 1042.59375 793.875 Z M 1003.472656 729.015625 " clip-rule="nonzero"/></clipPath></defs><g clip-path="url(#beb602281a)"><g clip-path="url(#1908c63b5f)"><g clip-path="url(#8f059cc094)"><g clip-path="url(#baf2f4b9f7)"><path fill="#0097b2" d="M 974.730469 800.019531 L 1034.757812 833.164062 C 1034.886719 833.234375 1035.039062 833.230469 1035.164062 833.15625 L 1093.878906 797.742188 C 1094.003906 797.667969 1094.078125 797.53125 1094.078125 797.386719 L 1093.734375 779.578125 C 1093.730469 779.265625 1093.386719 779.078125 1093.121094 779.238281 L 1034.804688 814.410156 C 1034.683594 814.484375 1034.527344 814.488281 1034.398438 814.417969 L 974.78125 781.5 C 974.507812 781.351562 974.175781 781.550781 974.179688 781.863281 L 974.523438 799.671875 C 974.523438 799.820312 974.605469 799.949219 974.730469 800.019531 " fill-opacity="1" fill-rule="nonzero"/></g></g></g></g><g clip-path="url(#32436cf3f7)"><g clip-path="url(#aa023b1d40)"><g clip-path="url(#632997d96c)"><path fill="#0097b2" d="M 927.238281 739.882812 L 928.550781 808.4375 C 928.550781 808.582031 928.632812 808.714844 928.757812 808.785156 L 988.785156 841.929688 C 988.914062 841.996094 989.066406 841.996094 989.191406 841.921875 L 1004.445312 832.722656 C 1004.710938 832.558594 1004.703125 832.171875 1004.429688 832.019531 L 944.8125 799.101562 C 944.6875 799.03125 944.609375 798.898438 944.605469 798.753906 L 943.304688 730.667969 C 943.296875 730.355469 942.953125 730.164062 942.6875 730.328125 L 927.433594 739.527344 C 927.3125 739.601562 927.234375 739.738281 927.238281 739.882812 " fill-opacity="1" fill-rule="nonzero"/></g></g></g><g clip-path="url(#9012a549ec)"><g clip-path="url(#c47050fca6)"><g clip-path="url(#83b71a03fb)"><path fill="#0097b2" d="M 955.574219 668.683594 L 896.859375 704.09375 C 896.734375 704.171875 896.660156 704.308594 896.660156 704.449219 L 897.972656 773.007812 C 897.976562 773.152344 898.054688 773.285156 898.183594 773.355469 L 913.777344 781.964844 C 914.050781 782.117188 914.382812 781.914062 914.378906 781.601562 L 913.074219 713.511719 C 913.074219 713.367188 913.148438 713.234375 913.273438 713.160156 L 971.585938 677.988281 C 971.855469 677.824219 971.847656 677.4375 971.574219 677.285156 L 955.980469 668.675781 C 955.851562 668.605469 955.699219 668.605469 955.574219 668.683594 " fill-opacity="1" fill-rule="nonzero"/></g></g></g><g clip-path="url(#41c1050c93)"><g clip-path="url(#2313ecc4ad)"><g clip-path="url(#83b83d51ee)"><path fill="#0097b2" d="M 1031.402344 657.621094 L 971.375 624.480469 C 971.246094 624.410156 971.09375 624.410156 970.96875 624.488281 L 912.253906 659.898438 C 912.128906 659.976562 912.054688 660.109375 912.058594 660.253906 L 912.398438 678.066406 C 912.402344 678.375 912.746094 678.566406 913.011719 678.40625 L 971.328125 643.234375 C 971.453125 643.15625 971.605469 643.15625 971.734375 643.226562 L 1031.351562 676.140625 C 1031.625 676.292969 1031.957031 676.089844 1031.949219 675.777344 L 1031.613281 657.96875 C 1031.609375 657.824219 1031.527344 657.691406 1031.402344 657.621094 " fill-opacity="1" fill-rule="nonzero"/></g></g></g><g clip-path="url(#6e8ae4fe97)"><g clip-path="url(#1dfd4c4754)"><g clip-path="url(#fddbf4a17f)"><path fill="#0097b2" d="M 1078.894531 717.761719 L 1077.582031 649.203125 C 1077.582031 649.058594 1077.5 648.925781 1077.375 648.855469 L 1017.347656 615.714844 C 1017.21875 615.644531 1017.066406 615.648438 1016.941406 615.722656 L 1001.6875 624.921875 C 1001.421875 625.082031 1001.429688 625.472656 1001.699219 625.625 L 1061.320312 658.539062 C 1061.445312 658.609375 1061.527344 658.742188 1061.527344 658.886719 L 1062.828125 726.976562 C 1062.835938 727.289062 1063.179688 727.476562 1063.445312 727.316406 L 1078.699219 718.117188 C 1078.824219 718.039062 1078.898438 717.90625 1078.894531 717.761719 " fill-opacity="1" fill-rule="nonzero"/></g></g></g><g clip-path="url(#db4125dcff)"><g clip-path="url(#004de6042b)"><g clip-path="url(#200339bb46)"><g clip-path="url(#5ccc099975)"><path fill="#0097b2" d="M 1050.558594 788.960938 L 1109.277344 753.546875 C 1109.398438 753.46875 1109.476562 753.335938 1109.472656 753.191406 L 1108.160156 684.632812 C 1108.15625 684.488281 1108.078125 684.359375 1107.953125 684.285156 L 1092.359375 675.675781 C 1092.085938 675.527344 1091.75 675.726562 1091.757812 676.039062 L 1093.058594 744.128906 C 1093.0625 744.273438 1092.984375 744.40625 1092.863281 744.484375 L 1034.546875 779.65625 C 1034.277344 779.816406 1034.285156 780.207031 1034.558594 780.355469 L 1050.152344 788.96875 C 1050.28125 789.039062 1050.433594 789.035156 1050.558594 788.960938 " fill-opacity="1" fill-rule="nonzero"/></g></g></g></g><g fill="#000000" fill-opacity="1"><g transform="translate(230.17708, 821.827301)"><g><path d="M 109.125 4.375 C 97.875 4.375 87.269531 2.878906 77.3125 -0.109375 C 67.363281 -3.109375 58.320312 -7.441406 50.1875 -13.109375 C 42.0625 -18.773438 35.039062 -25.613281 29.125 -33.625 C 23.21875 -41.632812 18.664062 -50.632812 15.46875 -60.625 C 12.28125 -70.625 10.6875 -81.488281 10.6875 -93.21875 C 10.6875 -104.957031 12.28125 -115.820312 15.46875 -125.8125 C 18.664062 -135.8125 23.21875 -144.816406 29.125 -152.828125 C 35.039062 -160.835938 42.0625 -167.671875 50.1875 -173.328125 C 58.320312 -178.992188 67.34375 -183.320312 77.25 -186.3125 C 87.164062 -189.3125 97.75 -190.8125 109 -190.8125 C 124.21875 -190.8125 138.078125 -188.140625 150.578125 -182.796875 C 163.078125 -177.460938 173.695312 -170.0625 182.4375 -160.59375 C 184.78125 -158.25 184.578125 -155.984375 181.828125 -153.796875 L 162.171875 -139.828125 C 159.828125 -137.890625 157.5625 -138.09375 155.375 -140.4375 C 149.625 -146.1875 142.800781 -150.738281 134.90625 -154.09375 C 127.019531 -157.457031 118.382812 -159.140625 109 -159.140625 C 99.9375 -159.140625 91.519531 -157.578125 83.75 -154.453125 C 75.988281 -151.335938 69.191406 -146.882812 63.359375 -141.09375 C 57.535156 -135.3125 53.003906 -128.375 49.765625 -120.28125 C 46.523438 -112.195312 44.90625 -103.21875 44.90625 -93.34375 C 44.90625 -83.382812 46.523438 -74.359375 49.765625 -66.265625 C 53.003906 -58.179688 57.535156 -51.222656 63.359375 -45.390625 C 69.191406 -39.566406 76.007812 -35.097656 83.8125 -31.984375 C 91.625 -28.867188 100.101562 -27.3125 109.25 -27.3125 C 118.550781 -27.3125 127.144531 -28.988281 135.03125 -32.34375 C 142.925781 -35.707031 149.707031 -40.257812 155.375 -46 C 157.5625 -48.269531 159.828125 -48.472656 162.171875 -46.609375 L 181.828125 -32.78125 C 184.660156 -30.59375 185.023438 -28.40625 182.921875 -26.21875 C 174.265625 -16.664062 163.625 -9.175781 151 -3.75 C 138.375 1.664062 124.414062 4.375 109.125 4.375 Z M 109.125 4.375 "/></g></g></g><g fill="#000000" fill-opacity="1"><g transform="translate(428.549108, 821.827301)"><g><path d="M 56.078125 2.796875 C 48.148438 2.796875 41.148438 1.359375 35.078125 -1.515625 C 29.003906 -4.390625 24.25 -8.597656 20.8125 -14.140625 C 17.375 -19.679688 15.65625 -26.5 15.65625 -34.59375 L 15.65625 -181.46875 C 15.65625 -184.789062 17.316406 -186.453125 20.640625 -186.453125 L 42 -186.453125 C 45.3125 -186.453125 46.96875 -184.789062 46.96875 -181.46875 L 46.96875 -38.234375 C 46.96875 -33.054688 48.117188 -29.3125 50.421875 -27 C 52.734375 -24.695312 55.875 -23.546875 59.84375 -23.546875 C 60.976562 -23.546875 62.269531 -23.644531 63.71875 -23.84375 C 65.175781 -24.050781 66.675781 -24.398438 68.21875 -24.890625 C 71.457031 -25.859375 73.5625 -24.804688 74.53125 -21.734375 L 78.78125 -6.4375 C 79.832031 -3.28125 78.820312 -1.132812 75.75 0 C 72.269531 1.21875 68.890625 1.988281 65.609375 2.3125 C 62.328125 2.632812 59.148438 2.796875 56.078125 2.796875 Z M 56.078125 2.796875 "/></g></g></g><g fill="#000000" fill-opacity="1"><g transform="translate(519.860204, 821.827301)"><g><path d="M 65.421875 -131.21875 C 72.953125 -131.21875 80.035156 -130.367188 86.671875 -128.671875 C 93.304688 -126.972656 99.148438 -124.257812 104.203125 -120.53125 C 109.265625 -116.8125 113.226562 -111.957031 116.09375 -105.96875 C 118.96875 -99.976562 120.40625 -92.695312 120.40625 -84.125 L 120.40625 -4.984375 C 120.40625 -1.660156 118.75 0 115.4375 0 L 102.078125 0 C 99.003906 0 97.1875 -1.457031 96.625 -4.375 L 93.59375 -15.78125 C 90.1875 -11.164062 86.28125 -7.503906 81.875 -4.796875 C 77.46875 -2.085938 72.875 -0.144531 68.09375 1.03125 C 63.320312 2.207031 58.628906 2.796875 54.015625 2.796875 C 48.347656 2.796875 42.90625 1.984375 37.6875 0.359375 C 32.46875 -1.253906 27.851562 -3.679688 23.84375 -6.921875 C 19.84375 -10.160156 16.664062 -14.265625 14.3125 -19.234375 C 11.96875 -24.210938 10.796875 -30.019531 10.796875 -36.65625 C 10.796875 -43.613281 12.109375 -49.679688 14.734375 -54.859375 C 17.367188 -60.046875 21.015625 -64.359375 25.671875 -67.796875 C 30.328125 -71.234375 35.769531 -73.820312 42 -75.5625 C 48.226562 -77.300781 54.945312 -78.171875 62.15625 -78.171875 C 70.726562 -78.171875 79.707031 -77 89.09375 -74.65625 L 89.09375 -82.78125 C 89.09375 -88.363281 87.9375 -92.789062 85.625 -96.0625 C 83.320312 -99.34375 80.164062 -101.710938 76.15625 -103.171875 C 72.15625 -104.628906 67.648438 -105.359375 62.640625 -105.359375 C 57.617188 -105.359375 52.273438 -104.75 46.609375 -103.53125 C 40.941406 -102.320312 35.316406 -100.664062 29.734375 -98.5625 C 26.503906 -97.425781 24.398438 -98.398438 23.421875 -101.484375 L 18.328125 -117.5 C 17.273438 -120.570312 18.328125 -122.675781 21.484375 -123.8125 C 28.679688 -126.15625 36.023438 -127.972656 43.515625 -129.265625 C 51.003906 -130.566406 58.304688 -131.21875 65.421875 -131.21875 Z M 61.546875 -20.03125 C 64.453125 -20.03125 67.503906 -20.515625 70.703125 -21.484375 C 73.898438 -22.453125 76.894531 -24.03125 79.6875 -26.21875 C 82.476562 -28.40625 84.742188 -31.296875 86.484375 -34.890625 C 88.222656 -38.492188 89.09375 -42.925781 89.09375 -48.1875 L 89.09375 -53.65625 C 85.695312 -54.457031 82.359375 -55.0625 79.078125 -55.46875 C 75.804688 -55.875 72.59375 -56.078125 69.4375 -56.078125 C 64.25 -56.078125 59.59375 -55.445312 55.46875 -54.1875 C 51.34375 -52.9375 48.085938 -50.914062 45.703125 -48.125 C 43.316406 -45.332031 42.125 -41.671875 42.125 -37.140625 C 42.125 -33.253906 43.015625 -30.035156 44.796875 -27.484375 C 46.578125 -24.941406 48.941406 -23.0625 51.890625 -21.84375 C 54.847656 -20.632812 58.066406 -20.03125 61.546875 -20.03125 Z M 61.546875 -20.03125 "/></g></g></g><g fill="#000000" fill-opacity="1"><g transform="translate(658.996727, 821.827301)"><g><path d="M 182.5625 -128.546875 L 205.5 -128.546875 C 207.363281 -128.546875 208.640625 -128 209.328125 -126.90625 C 210.015625 -125.8125 209.910156 -124.414062 209.015625 -122.71875 L 153.1875 -0.25 C 152.050781 2.34375 150.632812 4.082031 148.9375 4.96875 C 147.238281 5.863281 145.539062 5.863281 143.84375 4.96875 C 142.144531 4.082031 140.726562 2.34375 139.59375 -0.25 L 107.671875 -78.171875 L 106.8125 -78.171875 L 74.65625 -0.25 C 73.601562 2.34375 72.222656 4.082031 70.515625 4.96875 C 68.816406 5.863281 67.117188 5.863281 65.421875 4.96875 C 63.722656 4.082031 62.304688 2.34375 61.171875 -0.25 L 5.953125 -122.71875 C 5.140625 -124.414062 5.078125 -125.8125 5.765625 -126.90625 C 6.453125 -128 7.726562 -128.546875 9.59375 -128.546875 L 32.171875 -128.546875 C 33.546875 -128.546875 34.695312 -128.257812 35.625 -127.6875 C 36.550781 -127.125 37.300781 -126.15625 37.875 -124.78125 L 69.0625 -52.1875 L 100.5 -128.546875 C 101.632812 -131.210938 103.03125 -132.988281 104.6875 -133.875 C 106.351562 -134.769531 108.035156 -134.769531 109.734375 -133.875 C 111.429688 -132.988281 112.847656 -131.210938 113.984375 -128.546875 L 145.90625 -52.1875 L 176.859375 -124.78125 C 177.421875 -126.15625 178.1875 -127.125 179.15625 -127.6875 C 180.132812 -128.257812 181.269531 -128.546875 182.5625 -128.546875 Z M 182.5625 -128.546875 "/></g></g></g><g fill="#000000" fill-opacity="1"><g transform="translate(880.802024, 821.827301)"><g/></g></g><g fill="#000000" fill-opacity="1"><g transform="translate(961.795471, 821.827301)"><g/></g></g><g fill="#000000" fill-opacity="1"><g transform="translate(1042.788918, 821.827301)"><g/></g></g><g fill="#000000" fill-opacity="1"><g transform="translate(1123.790288, 821.827301)"><g><path d="M 72.828125 4.375 C 63.929688 4.375 54.769531 3.484375 45.34375 1.703125 C 35.914062 -0.078125 25.453125 -3.191406 13.953125 -7.640625 C 10.878906 -9.097656 9.953125 -11.328125 11.171875 -14.328125 L 18.6875 -34.46875 C 19.90625 -37.382812 22.09375 -38.15625 25.25 -36.78125 C 34.226562 -32.570312 42.660156 -29.617188 50.546875 -27.921875 C 58.441406 -26.222656 65.585938 -25.375 71.984375 -25.375 C 80.878906 -25.375 88.035156 -27.113281 93.453125 -30.59375 C 98.878906 -34.070312 101.59375 -39.25 101.59375 -46.125 C 101.59375 -50.25 100.359375 -53.953125 97.890625 -57.234375 C 95.421875 -60.515625 92.082031 -63.585938 87.875 -66.453125 C 83.664062 -69.328125 78.910156 -72.160156 73.609375 -74.953125 C 68.316406 -77.742188 62.796875 -80.675781 57.046875 -83.75 C 51.378906 -86.832031 45.9375 -90.128906 40.71875 -93.640625 C 35.5 -97.160156 30.804688 -101.085938 26.640625 -105.421875 C 22.472656 -109.753906 19.175781 -114.769531 16.75 -120.46875 C 14.320312 -126.175781 13.109375 -132.753906 13.109375 -140.203125 C 13.109375 -149.179688 14.742188 -156.863281 18.015625 -163.25 C 21.296875 -169.644531 25.75 -174.863281 31.375 -178.90625 C 37 -182.957031 43.390625 -185.953125 50.546875 -187.890625 C 57.710938 -189.835938 65.222656 -190.8125 73.078125 -190.8125 C 80.441406 -190.8125 88.472656 -189.921875 97.171875 -188.140625 C 105.867188 -186.359375 114.382812 -183.890625 122.71875 -180.734375 C 125.789062 -179.523438 126.679688 -177.382812 125.390625 -174.3125 L 118.953125 -155 C 117.660156 -151.925781 115.515625 -151 112.515625 -152.21875 C 106.046875 -154.96875 99.453125 -157.109375 92.734375 -158.640625 C 86.015625 -160.179688 79.664062 -160.953125 73.6875 -160.953125 C 68.90625 -160.953125 64.53125 -160.34375 60.5625 -159.125 C 56.601562 -157.914062 53.445312 -155.972656 51.09375 -153.296875 C 48.75 -150.628906 47.578125 -147.070312 47.578125 -142.625 C 47.578125 -138.582031 48.609375 -134.960938 50.671875 -131.765625 C 52.734375 -128.566406 55.585938 -125.609375 59.234375 -122.890625 C 62.878906 -120.179688 67.046875 -117.570312 71.734375 -115.0625 C 76.429688 -112.5625 81.453125 -109.972656 86.796875 -107.296875 C 92.617188 -104.222656 98.441406 -100.925781 104.265625 -97.40625 C 110.097656 -93.882812 115.421875 -89.835938 120.234375 -85.265625 C 125.046875 -80.691406 128.90625 -75.347656 131.8125 -69.234375 C 134.726562 -63.128906 136.1875 -55.992188 136.1875 -47.828125 C 136.1875 -38.597656 134.445312 -30.6875 130.96875 -24.09375 C 127.488281 -17.5 122.753906 -12.097656 116.765625 -7.890625 C 110.773438 -3.679688 104 -0.585938 96.4375 1.390625 C 88.875 3.378906 81.003906 4.375 72.828125 4.375 Z M 72.828125 4.375 "/></g></g></g></svg>